HIERARCHY
ROOT Hips
{
	OFFSET 0.000000 0.000000 0.000000
	CHANNELS 6 Xposition Yposition Zposition Xrotation Yrotation Zrotation
	JOINT LeftUpLeg_virtual
	{
		OFFSET 0.000000 0.000000 0.000000
		CHANNELS 3 Xrotation Yrotation Zrotation
		JOINT LeftUpLeg
		{
			OFFSET 11.394100 -6.187798 -0.413800
			CHANNELS 3 Xrotation Yrotation Zrotation
			JOINT LeftLeg
			{
				OFFSET 0.430247 -32.302673 3.732800
				CHANNELS 3 Xrotation Yrotation Zrotation
				JOINT LeftFoot
				{
					OFFSET -0.430247 -48.264931 -6.423300
					CHANNELS 3 Xrotation Yrotation Zrotation
					JOINT LeftToeBase
					{
						OFFSET 4.230900 -16.068199 23.438400
						CHANNELS 3 Xrotation Yrotation Zrotation
						JOINT LeftToe_End
						{
							OFFSET 4.510700 0.695400 19.974600
							CHANNELS 3 Xrotation Yrotation Zrotation
							End Site
							{
								OFFSET 0 0 0
							}
						}
					}
				}
			}
		}
	}
	JOINT RightUpLeg_virtual
	{
		OFFSET 0.000000 0.000000 0.000000
		CHANNELS 3 Xrotation Yrotation Zrotation
		JOINT RightUpLeg
		{
			OFFSET -11.333700 -6.187798 -0.413800
			CHANNELS 3 Xrotation Yrotation Zrotation
			JOINT RightLeg
			{
				OFFSET -0.430392 -32.302628 3.733000
				CHANNELS 3 Xrotation Yrotation Zrotation
				JOINT RightFoot
				{
					OFFSET 0.430392 -48.264973 -6.423500
					CHANNELS 3 Xrotation Yrotation Zrotation
					JOINT RightToeBase
					{
						OFFSET -4.230900 -16.068199 23.438400
						CHANNELS 3 Xrotation Yrotation Zrotation
						JOINT RightToe_End
						{
							OFFSET -4.510700 0.695400 19.974600
							CHANNELS 3 Xrotation Yrotation Zrotation
							End Site
							{
								OFFSET 0 0 0
							}
						}
					}
				}
			}
		}
	}
	JOINT Spine_virtual
	{
		OFFSET 0.000000 0.000000 0.000000
		CHANNELS 3 Xrotation Yrotation Zrotation
		JOINT Spine
		{
			OFFSET -0.002400 12.777504 0.315300
			CHANNELS 3 Xrotation Yrotation Zrotation
			JOINT Spine1
			{
				OFFSET -0.002067 5.816869 0.032633
				CHANNELS 3 Xrotation Yrotation Zrotation
				JOINT Spine1_split
				{
					OFFSET -0.002067 5.816869 0.032633
					CHANNELS 3 Xrotation Yrotation Zrotation
					JOINT Spine2
					{
						OFFSET -0.002067 5.816869 0.032633
						CHANNELS 3 Xrotation Yrotation Zrotation
						JOINT Neck_virtual
						{
							OFFSET 0.000000 0.000000 0.000000
							CHANNELS 3 Xrotation Yrotation Zrotation
							JOINT Neck
							{
								OFFSET -0.003700 21.199493 -0.826900
								CHANNELS 3 Xrotation Yrotation Zrotation
								JOINT Head
								{
									OFFSET 0.000000 20.442200 4.834800
									CHANNELS 3 Xrotation Yrotation Zrotation
									JOINT HeadTop_End
									{
										OFFSET 0.000000 34.668396 4.968400
										CHANNELS 3 Xrotation Yrotation Zrotation
										End Site
										{
											OFFSET 0 0 0
										}
									}
								}
							}
						}
						JOINT LeftShoulder_virtual
						{
							OFFSET 0.000000 0.000000 0.000000
							CHANNELS 3 Xrotation Yrotation Zrotation
							JOINT LeftShoulder
							{
								OFFSET 3.288150 8.794197 -1.372250
								CHANNELS 3 Xrotation Yrotation Zrotation
								JOINT LeftShoulder_split
								{
									OFFSET 3.288150 8.794197 -1.372250
									CHANNELS 3 Xrotation Yrotation Zrotation
									JOINT LeftArm
									{
										OFFSET 11.953299 -2.279007 -0.146200
										CHANNELS 3 Xrotation Yrotation Zrotation
										JOINT LeftForeArm
										{
											OFFSET 18.448900 0.000000 0.000000
											CHANNELS 3 Xrotation Yrotation Zrotation
											JOINT LeftHand
											{
												OFFSET 29.527798 0.000000 0.000000
												CHANNELS 3 Xrotation Yrotation Zrotation
												End Site
												{
													OFFSET 0 0 0
												}
											}
										}
									}
								}
							}
						}
						JOINT RightShoulder_virtual
						{
							OFFSET 0.000000 0.000000 0.000000
							CHANNELS 3 Xrotation Yrotation Zrotation
							JOINT RightShoulder
							{
								OFFSET -3.249400 8.794197 -1.372250
								CHANNELS 3 Xrotation Yrotation Zrotation
								JOINT RightShoulder_split
								{
									OFFSET -3.249400 8.794197 -1.372250
									CHANNELS 3 Xrotation Yrotation Zrotation
									JOINT RightArm
									{
										OFFSET -11.953299 -2.279007 -0.146200
										CHANNELS 3 Xrotation Yrotation Zrotation
										JOINT RightForeArm
										{
											OFFSET -18.448900 0.000000 0.000000
											CHANNELS 3 Xrotation Yrotation Zrotation
											JOINT RightHand
											{
												OFFSET -29.527802 0.000000 0.000000
												CHANNELS 3 Xrotation Yrotation Zrotation
												End Site
												{
													OFFSET 0 0 0
												}
											}
										}
									}
								}
							}
						}
					}
				}
			}
		}
	}
}
MOTION
Frames: 10
Frame Time: 0.03333333
-1.407672 235.406845 -28.218817 0.000000 0.000000 0.000000 -3.300275 2.776467 6.003083 -83.940143 25.345789 28.271825 83.016762 -6.443856 5.342890 11.840884 13.491458 -4.771926 2.142418 2.875937 -1.318529 0.000000 0.000000 0.000000 0.989400 2.104150 4.946382 -90.352686 8.560901 -17.423866 93.307303 6.112829 -5.159723 24.065108 -9.496692 27.659741 15.999493 -14.892468 -21.704094 0.000000 0.000000 0.000000 -2.749639 6.178628 2.424978 8.311311 -0.015172 4.539195 17.467288 -2.758645 0.030309 0.112782 0.401989 0.017397 0.000000 0.000000 0.000000 22.762712 -1.062689 -0.187417 -11.626808 12.580675 -5.948098 -9.458297 -31.287307 -20.568136 0.000000 0.000000 0.000000 19.497043 -2.508471 -2.211149 8.401783 -25.321478 25.502313 6.988790 -0.318950 -2.388581 -67.622424 -25.577791 8.694447 0.487630 -50.697479 19.061154 0.000000 0.000000 0.000000 21.768882 -1.102845 0.216391 2.849887 15.462551 -20.150926 12.486991 5.531700 2.279121 -82.693729 36.631315 20.667859 -41.739911 40.651005 12.283821 0.000000 0.000000 0.000000 
-0.352423 236.820068 -29.328367 0.000000 0.000000 0.000000 -4.598643 0.118572 5.141544 -89.572897 24.026789 30.806038 84.996657 -7.371992 6.282315 11.917248 10.679855 -5.832757 0.973932 2.678425 -0.317365 0.000000 0.000000 0.000000 -0.291202 0.710203 3.874066 -92.243201 6.718193 -14.602352 88.783061 6.632247 -4.735303 20.937431 -9.533563 24.816987 14.588830 -14.974315 -24.128297 0.000000 0.000000 0.000000 -3.654961 4.446671 2.313791 8.521599 0.291978 3.390993 20.220545 -2.857048 0.754340 0.135393 0.428375 -0.021300 0.000000 0.000000 0.000000 25.313362 -1.045746 0.028851 -11.914433 13.268915 -6.172640 -6.050672 -29.280338 -17.325705 0.000000 0.000000 0.000000 22.270122 -2.618015 -1.662839 9.836229 -24.911069 29.557121 8.798366 -1.276713 -2.554574 -71.173146 -20.473192 9.389593 -1.203377 -46.497418 20.748113 0.000000 0.000000 0.000000 24.386535 -1.079399 0.540267 4.776381 16.459841 -23.450792 13.578734 4.587940 2.565458 -95.169329 34.322172 27.034918 -42.302421 37.127822 10.530824 0.000000 0.000000 0.000000 
0.774606 238.213760 -30.096769 0.000000 0.000000 0.000000 -5.303863 -1.321000 4.496474 -92.466910 23.922164 31.508305 81.125804 -9.429863 7.312237 14.094122 6.357824 -7.924566 0.065240 2.320197 1.447168 0.000000 0.000000 0.000000 -1.089631 -0.350703 3.263896 -90.784388 4.095587 -12.132155 78.271693 7.349570 -4.211188 18.361048 -7.834592 21.189812 13.971133 -14.743295 -26.007146 0.000000 0.000000 0.000000 -3.533791 3.204579 2.432208 7.252139 0.754627 2.457785 22.549692 -2.900810 1.477108 0.162849 0.340392 0.025357 0.000000 0.000000 0.000000 27.552218 -0.923355 0.468696 -11.650417 13.887404 -6.597228 -3.687215 -27.384436 -15.010340 0.000000 0.000000 0.000000 24.601032 -2.600679 -0.922072 10.565522 -23.646315 32.079250 9.373294 -1.738228 -3.136362 -75.063758 -17.615659 8.708641 -3.187712 -40.706032 21.362404 0.000000 0.000000 0.000000 26.506287 -1.020432 1.019101 6.596807 17.448400 -26.001757 15.390569 3.123457 2.828184 -104.126384 33.525020 28.963786 -42.101576 32.984305 9.326938 0.000000 0.000000 0.000000 
1.774167 239.254120 -30.350954 0.000000 0.000000 0.000000 -5.353340 -1.575150 4.251409 -92.462757 25.241328 30.651864 71.955729 -12.508827 7.819528 17.168898 1.335871 -9.846468 -1.006964 1.851578 3.670656 0.000000 0.000000 0.000000 -1.764676 -1.490254 3.370554 -88.539216 1.920030 -10.326388 63.275337 9.356784 -3.890033 18.687411 -3.389862 18.545104 14.967905 -14.275547 -27.216021 0.000000 0.000000 0.000000 -2.784570 2.583130 2.745777 5.166128 1.284844 1.781920 24.337173 -2.962960 2.065057 0.141187 0.334485 -0.034345 0.000000 0.000000 0.000000 29.241508 -0.799181 0.994735 -10.986079 14.298700 -7.081930 -2.496913 -26.206060 -13.484186 0.000000 0.000000 0.000000 26.359107 -2.506627 -0.199646 10.663384 -21.467238 33.487284 9.808761 -1.854434 -2.818370 -78.481080 -17.224856 7.983590 -6.469793 -32.486374 19.965698 0.000000 0.000000 0.000000 27.923903 -1.052785 1.540315 8.318660 18.241487 -28.435845 17.374410 1.379088 3.126603 -108.705657 35.226721 26.927799 -41.388047 28.569681 8.581950 0.000000 0.000000 0.000000 
2.499428 239.382568 -30.055075 0.000000 0.000000 0.000000 -5.251929 -0.883479 4.507626 -90.586087 27.541064 28.919923 60.326662 -15.758525 7.354367 19.791407 -3.021086 -10.026559 -1.440543 1.334617 5.435228 0.000000 0.000000 0.000000 -2.111746 -2.221811 3.941967 -85.922878 0.003569 -8.942705 46.207640 12.074228 -3.473822 19.379424 2.066077 16.194527 14.010675 -13.149498 -29.530466 0.000000 0.000000 0.000000 -2.226879 2.476932 3.291110 3.095642 1.816456 1.381212 25.508760 -3.045723 2.420208 0.062793 0.322569 -0.045229 0.000000 0.000000 0.000000 30.164636 -0.728333 1.422496 -10.012046 14.396024 -7.497599 -2.123216 -25.723452 -12.427013 0.000000 0.000000 0.000000 27.504955 -2.429271 0.338977 10.291862 -18.449272 34.500494 10.316975 -1.239721 -2.335204 -80.316707 -18.910748 8.226656 -11.035775 -22.474056 16.624559 0.000000 0.000000 0.000000 28.594237 -1.186508 1.923389 9.903190 18.865659 -30.922858 19.134773 -0.045667 2.848923 -108.996780 37.974585 21.709683 -40.731492 25.103223 8.448082 0.000000 0.000000 0.000000 
2.894509 238.078278 -29.260782 0.000000 0.000000 0.000000 -5.532451 -0.083551 4.989313 -88.225861 29.929967 27.202024 50.342463 -18.682321 6.313452 21.093484 -6.105509 -8.070187 -1.536996 0.919864 6.421585 0.000000 0.000000 0.000000 -2.251945 -2.373049 4.505065 -82.575061 -2.244676 -8.012647 31.465199 14.443774 -2.753776 18.348702 6.791100 13.517822 8.613406 -11.076957 -33.687456 0.000000 0.000000 0.000000 -2.340246 2.423156 3.949642 1.670821 2.308093 1.237391 26.073911 -3.128676 2.472613 0.020085 0.309574 -0.085142 0.000000 0.000000 0.000000 30.442023 -0.770854 1.566011 -8.878809 14.150072 -7.712758 -2.419204 -26.101004 -11.560608 0.000000 0.000000 0.000000 28.084491 -2.400853 0.573960 9.602854 -15.013932 35.415747 11.007755 -0.524007 -2.145982 -79.630266 -21.365076 10.182029 -16.023805 -12.941271 12.021464 0.000000 0.000000 0.000000 28.683864 -1.409012 2.071791 11.223567 19.324304 -33.602639 20.437116 -0.152338 2.061307 -105.463681 39.544770 13.786167 -40.487859 23.948407 9.098613 0.000000 0.000000 0.000000 
2.990404 235.452713 -27.938013 0.000000 0.000000 0.000000 -6.647211 0.357903 5.375729 -86.703767 31.937490 26.494748 45.253937 -21.017834 5.257270 20.432530 -8.004005 -4.135403 -1.874357 0.621693 6.808217 0.000000 0.000000 0.000000 -3.279955 -2.240260 4.616956 -80.674923 -4.489919 -8.386232 25.962442 16.106520 -2.110952 17.300215 9.666715 10.282437 4.915607 -9.611731 -36.346975 0.000000 0.000000 0.000000 -3.452663 2.101223 4.459648 1.118648 2.654434 1.311189 26.103885 -3.204897 2.258506 0.041085 0.323829 -0.140405 0.000000 0.000000 0.000000 30.172658 -0.903393 1.366539 -7.629437 13.542353 -7.704455 -2.938849 -27.273615 -10.641770 0.000000 0.000000 0.000000 28.174308 -2.415645 0.441572 8.848107 -11.865542 36.477322 11.963589 -0.266561 -1.953481 -76.175529 -23.632777 13.896512 -20.651014 -5.392353 6.658640 0.000000 0.000000 0.000000 28.426791 -1.631924 1.898589 12.257139 19.798176 -36.481690 21.192936 0.136289 1.289749 -100.200835 38.415262 4.629638 -40.717954 24.906191 10.214120 0.000000 0.000000 0.000000 
2.764572 232.184265 -26.530123 0.000000 0.000000 0.000000 -8.778928 0.957791 5.597078 -87.166184 32.847138 27.172547 47.051080 -23.100651 5.083463 18.910222 -9.278643 0.729664 -2.880121 0.427675 6.919603 0.000000 0.000000 0.000000 -5.698743 -1.559569 4.280494 -82.803886 -6.414167 -10.577467 31.110422 16.563511 -1.861825 17.725784 10.121253 5.893201 8.522975 -10.725614 -35.283962 0.000000 0.000000 0.000000 -5.178794 1.598144 4.670265 1.264557 2.845370 1.622792 25.714173 -3.234069 1.855603 0.117164 0.293538 -0.125633 0.000000 0.000000 0.000000 29.533198 -1.065771 0.863268 -6.247286 12.702877 -7.492262 -3.297306 -28.742102 -9.475827 0.000000 0.000000 0.000000 27.845725 -2.462122 0.000054 8.199846 -9.493377 37.636255 12.648972 -0.460405 -2.017862 -70.692267 -24.701263 18.865247 -24.555206 -0.455940 0.944747 0.000000 0.000000 0.000000 27.993884 -1.765705 1.471631 12.978972 20.453271 -39.210040 21.593428 0.492025 0.344221 -96.040021 34.089665 -3.614632 -41.196013 27.059651 11.327772 0.000000 0.000000 0.000000 
2.400788 228.884338 -24.938742 0.000000 0.000000 0.000000 -11.531473 1.935291 5.432015 -89.779490 32.329348 29.075343 55.020736 -25.044673 6.051909 17.406942 -10.322047 5.341144 -4.143364 0.326356 7.145247 0.000000 0.000000 0.000000 -8.710841 -0.512955 3.753386 -88.653936 -7.103779 -14.080220 42.823551 16.331527 -1.550726 19.056216 8.940582 0.892490 15.498891 -13.066196 -31.778866 0.000000 0.000000 0.000000 -7.327299 1.011570 4.454616 1.780350 2.857044 2.148039 25.086055 -3.188930 1.372583 0.182299 0.300075 -0.172185 0.000000 0.000000 0.000000 28.804164 -1.177969 0.189350 -4.760673 11.843500 -7.218795 -3.789801 -29.943542 -8.304986 0.000000 0.000000 0.000000 27.239076 -2.474097 -0.626446 7.835900 -8.207737 38.590921 13.227174 -0.721684 -2.362623 -64.732237 -24.419743 23.702322 -27.551595 1.948240 -4.695376 0.000000 0.000000 0.000000 27.539377 -1.744803 0.960505 13.496210 21.424123 -41.605240 21.955979 0.480407 -0.090166 -93.893128 27.964048 -9.882325 -41.514682 29.081900 12.032886 0.000000 0.000000 0.000000 
2.064467 226.319916 -22.895380 0.000000 0.000000 0.000000 -14.402535 2.975721 4.714112 -93.721861 30.762318 31.647982 66.026947 -26.077626 7.492745 16.092064 -10.766856 9.522904 -4.061071 0.412846 7.232626 0.000000 0.000000 0.000000 -11.427438 0.737373 3.148653 -95.151591 -6.747467 -17.712146 55.177874 16.124034 -0.961122 20.002694 7.148310 -4.312887 20.599890 -14.860323 -28.597652 0.000000 0.000000 0.000000 -9.656394 0.468175 3.839305 2.331499 2.689948 2.815330 24.336300 -3.039449 0.945696 0.194918 0.303841 -0.159392 0.000000 0.000000 0.000000 28.100419 -1.166368 -0.439588 -3.295845 11.085029 -6.993768 -4.440350 -30.597332 -7.404599 0.000000 0.000000 0.000000 26.443841 -2.407128 -1.260607 7.856567 -8.043914 39.221719 13.487616 -0.622662 -3.034953 -59.480955 -23.482552 27.371193 -29.590343 2.607759 -9.753017 0.000000 0.000000 0.000000 27.035190 -1.580785 0.470133 13.796139 22.585579 -43.427709 23.059057 0.139849 -0.059301 -93.157852 22.099265 -14.066507 -41.528377 30.235820 12.250688 0.000000 0.000000 0.000000 
